;TYPE=PLATED
;Layer: PTH_Through
;EasyEDA Pro v2.2.40.8, 2025-10-10 01:47:25
;Gerber Generator version 0.3
M48
METRIC,LZ,0000.00000
;Hole size 1 = 0.80000 METRIC
T01C0.80000
;Hole size 2 = 0.80000 METRIC
T02C0.80000
;Hole size 3 = 3.00000 METRIC
T03C3.00000
%
G05
G90
T01
X-11.45239Y21.809
X-4.25261Y21.809
X-21.48539Y21.809
X-14.28561Y21.809
X-15.0915Y18.333
X-10.0115Y18.333
T02
X-19.685Y18.333
X-29.33697Y40.132
X-29.33697Y37.592
X-29.33697Y35.052
X-29.33697Y32.512
X-29.33697Y29.972
X-29.33697Y27.432
X-29.33697Y24.892
X-29.33697Y22.352
X-29.33697Y19.812
X-44.57703Y19.812
X-44.57703Y22.352
X-44.57703Y24.892
X-44.57703Y27.432
X-44.57703Y29.972
X-44.57703Y32.512
X-44.57703Y35.052
X-44.57703Y37.592
X-44.57703Y40.132
X-6.858Y30.82393
X-6.858Y28.32401
X-21.303Y26.631
X-13.303Y26.631
X-12.133Y34.781
X-22.473Y34.781
X-12.00518Y8.873
X-9.50493Y8.873
X-7.00519Y8.873
X-4.50494Y8.873
X-28.68193Y8.873
X-26.18212Y8.873
X-41.72318Y8.873
X-39.22293Y8.873
X-36.72319Y8.873
X-34.22294Y8.873
X-20.29993Y8.873
X-17.80012Y8.873
X-55.05818Y8.873
X-52.55793Y8.873
X-50.05819Y8.873
X-47.55794Y8.873
X-53.99795Y18.45513
X-53.99795Y20.95513
X-53.99795Y23.45512
X-53.998Y25.95512
X-53.99795Y15.95501
X-53.871Y31.68307
X-53.871Y34.18307
X-53.871Y36.68306
X-53.871Y39.18306
T03
X-4.0Y3.0
X-54.0Y3.0
M30